<svg version="1.1" id="Layer_1" xmlns="http://www.w3.org/2000/svg" xmlns:xlink="http://www.w3.org/1999/xlink" x="0px" y="0px"
	 width="100%" viewBox="0 0 1024 1024" enable-background="new 0 0 1024 1024" xml:space="preserve">
<path fill="#01111B" opacity="1.000000" stroke="none" 
	d="
M575.000000,1025.000000 
	C383.333344,1025.000000 192.166672,1025.000000 1.000000,1025.000000 
	C1.000000,683.666687 1.000000,342.333344 1.000000,1.000000 
	C342.333344,1.000000 683.666687,1.000000 1025.000000,1.000000 
	C1025.000000,342.333344 1025.000000,683.666687 1025.000000,1025.000000 
	C875.166687,1025.000000 725.333313,1025.000000 575.000000,1025.000000 
M570.049561,633.320129 
	C569.763062,633.149963 569.476501,632.979797 568.984375,632.169373 
	C563.796021,626.555542 558.727173,620.825439 553.397522,615.349060 
	C535.671814,597.135559 517.852478,579.013184 500.008453,559.938416 
	C499.638245,548.957886 499.268036,537.977295 499.074799,526.155029 
	C498.993744,524.442261 498.912689,522.729553 498.971130,520.086975 
	C498.684204,512.402039 498.397308,504.717133 498.346191,496.314484 
	C498.165070,490.549103 497.983948,484.783752 497.945160,478.103638 
	C497.651093,472.075714 497.357025,466.047791 497.267029,459.541321 
	C497.170868,458.697144 497.074707,457.852936 497.092041,456.124084 
	C497.006958,453.750641 496.921906,451.377197 496.956543,448.497009 
	C496.903900,448.331665 496.851227,448.166290 496.934937,447.345642 
	C496.873291,446.906677 496.811676,446.467682 496.904510,445.119324 
	C496.475342,436.861847 496.046173,428.604370 495.617004,420.346924 
	C495.216949,420.287079 494.816925,420.227234 494.416870,420.167358 
	C492.247742,427.099060 490.078583,434.030762 487.421539,441.334747 
	C487.190033,442.325775 486.958557,443.316803 486.202148,444.862640 
	C484.755341,449.553192 483.308563,454.243774 481.408386,459.312408 
	C481.300781,459.881805 481.193176,460.451172 480.699554,461.642670 
	C479.238861,466.474365 477.778168,471.306030 476.068237,476.633728 
	C476.058960,477.000031 476.049683,477.366333 475.704895,478.113922 
	C475.542450,478.748932 475.380005,479.383942 474.918915,480.719055 
	C473.968994,484.488495 473.019104,488.257935 471.682068,492.611267 
	C471.196136,494.410431 470.710175,496.209595 469.983368,498.749542 
	C468.296234,504.815552 466.444275,510.841217 464.948242,516.954041 
	C453.917999,562.024414 442.973602,607.115845 431.968323,652.192383 
	C428.497711,666.407837 424.923767,680.598145 421.068146,696.124817 
	C422.754303,694.319519 423.686951,693.497681 424.410095,692.520813 
	C443.396851,666.871399 462.278992,641.144043 481.368958,615.571838 
	C489.701721,604.409607 498.452698,593.559509 507.599518,582.966248 
	C510.468323,585.204224 513.411011,587.354248 516.193848,589.694397 
	C533.692200,604.409058 551.154907,619.166016 568.717957,634.150330 
	C568.818909,634.304565 568.960938,634.392456 569.441101,634.909485 
	C569.769775,635.109009 570.098389,635.308533 570.734375,635.915161 
	C571.028931,636.076782 571.323425,636.238403 571.934509,636.918823 
	C572.291992,636.942749 572.649414,636.966675 572.893127,637.634766 
	C573.239685,637.642700 573.586243,637.650635 573.932800,637.658508 
	C573.621155,637.439697 573.309448,637.220947 573.046387,636.434265 
	C572.739380,636.248718 572.432312,636.063171 572.044250,635.353088 
	C571.755005,635.177795 571.465820,635.002502 571.051208,634.323425 
	C570.760925,634.155579 570.470642,633.987671 570.049561,633.320129 
M368.212524,662.294128 
	C369.028442,660.026611 369.937317,657.787781 370.646393,655.487366 
	C381.258179,621.058411 391.852631,586.624023 402.421112,552.181763 
	C403.502930,548.656067 404.391693,545.071228 405.369965,541.513794 
	C405.041901,541.376160 404.713806,541.238464 404.385712,541.100769 
	C380.040985,568.306396 355.696259,595.512024 331.351532,622.717651 
	C331.551544,623.032227 331.751556,623.346802 331.951569,623.661377 
	C343.432098,617.626343 354.912598,611.591309 366.476685,605.512390 
	C366.476685,611.854919 366.699432,617.493286 366.432190,623.108276 
	C365.799164,636.408813 364.933533,649.698364 363.967468,663.804504 
	C363.625854,668.162842 363.284210,672.521118 362.942566,676.879456 
	C363.183441,676.915405 363.424347,676.951355 363.665222,676.987366 
	C365.077209,672.326843 366.489197,667.666321 368.212524,662.294128 
M678.956055,863.705872 
	C679.975403,868.318665 682.514587,871.240417 687.565674,870.644287 
	C692.666870,870.042236 694.363220,866.621460 694.278748,861.825928 
	C694.196655,857.170593 694.110413,852.490723 694.502441,847.862000 
	C694.698120,845.552246 695.958069,843.332581 697.059814,840.133850 
	C699.046692,842.645386 700.068115,843.936035 701.088867,845.227173 
	C706.654846,852.267761 711.946350,859.555359 717.937500,866.213257 
	C719.998230,868.503235 723.868225,870.530396 726.802795,870.390564 
	C733.356079,870.078308 735.290649,863.678833 730.866089,857.669006 
	C725.251221,850.042358 719.450745,842.541321 713.450867,835.214966 
	C711.215149,832.484985 711.808228,830.827393 713.832642,828.435242 
	C719.412354,821.842041 724.919250,815.164795 730.002075,808.190674 
	C731.150940,806.614258 731.381836,803.103210 730.380066,801.550903 
	C729.176697,799.686157 725.875977,797.604248 724.065674,798.039307 
	C720.634888,798.863647 716.838135,800.745911 714.581787,803.378601 
	C708.543762,810.423706 703.250000,818.105896 697.631775,825.513000 
	C696.940369,826.424500 696.074158,827.203308 694.519043,828.867371 
	C694.519043,817.135132 694.539307,806.657898 694.512024,796.180786 
	C694.493347,789.028625 694.623779,781.866089 694.278198,774.728088 
	C694.045044,769.912781 690.806152,767.182617 686.560059,767.395935 
	C682.098633,767.620117 679.249023,770.393127 679.034607,775.055298 
	C678.882202,778.368774 679.065552,781.697754 678.953613,785.498352 
	C678.998962,785.658813 679.044250,785.819336 678.906250,786.903870 
	C678.970032,794.275757 679.033813,801.647583 678.946838,809.943420 
	C678.991089,817.619934 679.035400,825.296509 678.892578,833.851440 
	C678.956421,836.240784 679.020264,838.630127 678.933655,841.892578 
	C678.984558,844.252258 679.035461,846.612000 678.893494,849.766296 
	C678.948975,850.849609 679.004456,851.932861 678.885864,853.797852 
	C678.935242,854.859924 678.984619,855.922058 678.813660,857.647339 
	C678.883972,858.102295 678.954285,858.557190 678.845886,859.791870 
	C678.930847,860.849854 679.015808,861.907776 678.956055,863.705872 
M579.417175,484.547882 
	C587.086243,493.040039 594.755310,501.532196 602.556274,510.170380 
	C607.175232,506.431549 611.763000,503.089508 615.889893,499.251862 
	C618.824524,496.522919 621.162659,496.999664 623.517212,499.496613 
	C627.970398,504.219116 632.343323,509.020050 636.657410,513.870422 
	C651.978577,531.096008 667.260864,548.356262 682.125854,565.116211 
	C687.326050,560.174255 692.527161,555.483032 697.415344,550.485779 
	C700.085999,547.755554 701.931213,547.588928 704.696594,550.457092 
	C722.268921,568.682739 739.943298,586.810791 757.686768,604.870117 
	C762.998779,610.276733 768.639099,615.360718 774.071716,620.537842 
	C859.047485,492.743622 840.132324,302.323975 706.580933,194.367691 
	C563.876160,79.012314 364.889038,103.988518 254.400055,227.348663 
	C140.785095,354.198944 156.090485,525.063904 224.280609,621.573853 
	C248.291702,596.990234 272.323669,572.385254 296.464783,547.668518 
	C303.308441,554.066162 309.592590,559.940735 315.585327,565.542908 
	C318.797394,562.520020 322.696960,559.175110 326.222107,555.473572 
	C338.050873,543.053101 349.677734,530.440186 361.524200,518.036743 
	C366.619965,512.701416 367.385925,512.807983 373.087006,517.258850 
	C375.683472,519.285950 378.257324,521.342041 381.202881,523.670654 
	C393.711029,509.635559 405.971283,495.878662 418.823883,481.826172 
	C444.585602,452.977936 470.347290,424.129700 496.402802,394.952484 
	C498.589722,396.967346 500.127106,398.206024 501.457306,399.637268 
	C512.433655,411.447510 523.393250,423.273560 534.315979,435.133453 
	C549.282837,451.384521 564.212891,467.669464 579.417175,484.547882 
M309.247833,799.032959 
	C305.771729,798.820068 302.247925,798.130432 298.827332,798.472534 
	C278.545593,800.501221 265.291595,819.282471 267.219574,838.273926 
	C269.308502,858.851074 288.388519,873.787292 308.378723,870.614014 
	C314.137085,869.699890 319.840820,867.449463 325.122192,864.888916 
	C328.374939,863.311829 329.759277,859.696533 327.732239,855.851624 
	C325.792725,852.172729 322.526459,851.365295 318.822357,852.151062 
	C316.902252,852.558411 315.173889,853.898499 313.253204,854.268127 
	C309.066528,855.074158 304.753540,856.289185 300.597656,855.968689 
	C291.884125,855.296570 284.921875,848.373169 284.672241,841.101562 
	C298.822296,841.101562 312.969757,841.137817 327.116852,841.082947 
	C332.480194,841.062134 334.892334,838.569397 335.099548,833.170227 
	C335.677582,818.107300 325.582031,804.409302 309.247833,799.032959 
M586.960388,826.550476 
	C585.384033,826.721802 583.811707,826.967407 582.230713,827.051453 
	C575.440002,827.412659 568.557251,827.150452 561.874817,828.188721 
	C551.132751,829.857788 544.010437,838.590271 543.951904,848.943237 
	C543.893188,859.341553 550.979248,867.640808 561.559082,870.015442 
	C571.438477,872.232971 580.333740,870.435425 588.408447,864.067261 
	C589.102783,864.974915 589.705322,865.733093 590.276550,866.514282 
	C592.784912,869.944519 595.915527,871.737732 600.151001,869.887268 
	C604.557678,867.961914 604.593933,864.238708 604.034302,860.172363 
	C603.493530,856.243652 603.076843,852.272705 602.990906,848.311951 
	C602.824890,840.654602 603.103943,832.986389 602.885742,825.331604 
	C602.445740,809.889465 594.462097,800.070129 580.216614,798.385803 
	C574.198486,797.674194 567.954224,798.527649 561.848328,799.070557 
	C559.272278,799.299561 556.626282,800.245850 554.299805,801.430847 
	C550.685059,803.272156 549.409424,806.495422 551.214294,810.237244 
	C552.798645,813.521729 554.850647,815.877258 559.458008,814.412170 
	C563.826721,813.023132 568.546143,812.263367 573.135986,812.139709 
	C583.615540,811.857361 586.676697,815.058960 586.960388,826.550476 
M461.867065,800.430725 
	C455.652069,799.961243 449.289825,798.406921 443.249786,799.226624 
	C425.425995,801.645752 413.464050,819.220520 414.956085,839.513672 
	C416.177795,856.129395 431.851349,870.728027 448.692017,870.935974 
	C465.884766,871.148254 480.443878,859.411438 484.049866,842.432373 
	C487.720856,825.147156 478.757538,807.762085 461.867065,800.430725 
M404.536194,849.495178 
	C404.370056,840.175964 404.703888,830.814575 403.923737,821.547058 
	C402.668182,806.631958 390.528656,796.224976 376.846222,798.514893 
	C370.926361,799.505676 365.351624,802.558777 359.660919,804.659973 
	C359.339325,801.028870 357.207092,798.034058 352.236237,798.264771 
	C348.199524,798.452209 345.906494,801.683533 345.597778,807.252869 
	C345.524078,808.581909 345.521881,809.915771 345.514160,811.247559 
	C345.421509,827.233887 345.315491,843.220093 345.270782,859.206543 
	C345.265717,861.019958 345.378479,862.897217 345.844818,864.635376 
	C346.861603,868.425171 349.791107,871.270447 353.359406,870.553284 
	C356.248444,869.972656 358.979095,867.120056 361.069824,864.669373 
	C362.134674,863.421326 361.801605,860.840698 361.816681,858.860291 
	C361.897858,848.200745 361.846954,837.540039 361.955292,826.880920 
	C361.973267,825.114136 362.152130,823.144348 362.943665,821.626709 
	C365.817535,816.116638 374.473145,812.546875 380.621918,814.054871 
	C386.114441,815.401917 388.908905,819.965088 388.930969,827.734802 
	C388.963562,839.227051 388.850342,850.721191 389.027496,862.210999 
	C389.105713,867.284546 392.620117,870.644287 397.066345,870.559082 
	C401.663269,870.470947 404.438782,867.735718 404.701233,862.475586 
	C404.899902,858.493774 404.608215,854.487549 404.536194,849.495178 
M243.434937,832.942627 
	C248.582855,826.404968 254.062546,820.091248 258.704254,813.211975 
	C260.397400,810.702637 261.099609,806.632935 260.460815,803.660400 
	C259.601105,799.660034 255.618683,798.613098 251.652756,798.667908 
	C244.991394,798.760071 238.329514,798.836853 231.667618,798.862427 
	C224.672180,798.889343 217.671814,798.689087 210.682632,798.894958 
	C206.258667,799.025208 202.920105,802.265137 203.116333,805.959229 
	C203.348755,810.334717 205.906067,813.000183 210.155823,813.739136 
	C212.262299,814.105408 214.475342,813.881531 216.640228,813.885010 
	C223.710587,813.896240 230.780960,813.889160 239.099350,813.889160 
	C233.504150,820.717651 228.666077,826.533813 223.925858,832.428589 
	C217.358353,840.595886 210.597336,848.627930 204.434906,857.093262 
	C200.469391,862.540649 203.524612,869.790771 209.655304,869.898193 
	C225.309799,870.172668 240.974075,870.087952 256.631104,869.886414 
	C260.811005,869.832581 263.826202,866.117676 263.712402,862.264526 
	C263.588623,858.073486 260.870880,855.282349 256.281830,855.100586 
	C251.791809,854.922791 247.288055,855.099915 242.790314,855.106995 
	C237.410233,855.115540 232.030121,855.109070 225.415085,855.109070 
	C231.922012,847.108337 237.455399,840.304626 243.434937,832.942627 
M612.704834,530.178772 
	C600.660339,547.418701 588.615906,564.658569 576.164246,582.481445 
	C578.062073,581.727844 579.588379,581.278503 580.966553,580.549133 
	C590.072998,575.729797 599.161316,570.875488 608.222046,565.970825 
	C610.196655,564.901917 611.658630,563.914062 613.665405,566.381592 
	C633.891113,591.250916 654.249329,616.012390 674.570251,640.804199 
	C675.034363,640.559021 675.498474,640.313782 675.962585,640.068604 
	C656.641357,601.329224 637.320068,562.589783 617.639771,523.130615 
	C615.730713,525.819702 614.403015,527.689819 612.704834,530.178772 
M784.010620,832.411499 
	C781.109375,831.207214 778.244385,829.904236 775.298340,828.821838 
	C770.937317,827.219543 766.269287,826.237671 762.230774,824.064514 
	C760.235107,822.990540 758.240234,819.796875 758.328613,817.647949 
	C758.397461,815.973083 761.707947,813.052979 763.539673,813.082214 
	C769.541138,813.178040 775.581482,814.078003 781.498047,815.228516 
	C786.240112,816.150635 789.754089,814.189087 790.373291,809.395081 
	C790.939148,805.014282 788.594604,802.337524 784.852966,800.981323 
	C775.884888,797.730713 766.680176,796.869019 757.412170,799.578918 
	C748.168091,802.281860 742.764893,809.447693 742.391602,819.040344 
	C742.055176,827.686157 746.366943,833.889954 755.569641,837.488464 
	C760.192566,839.296204 765.012695,840.592896 769.684204,842.284790 
	C776.738281,844.839417 779.011658,847.499329 777.983704,851.651855 
	C777.037720,855.473633 772.138794,857.725403 765.690857,856.466248 
	C760.511108,855.454773 755.576843,853.161194 750.391602,852.214966 
	C748.260132,851.826050 744.694214,852.803650 743.693848,854.376465 
	C742.479004,856.286499 742.272949,860.142151 743.460266,861.962891 
	C745.136230,864.533142 748.229980,866.672913 751.175903,867.825989 
	C759.194641,870.964661 767.534302,871.734802 776.150574,870.115051 
	C785.199890,868.413757 791.436279,863.695557 793.862000,854.740967 
	C796.131226,846.364075 792.717590,838.694397 784.010620,832.411499 
M654.346497,831.056213 
	C648.069885,828.896484 641.635376,827.088562 635.603821,824.382568 
	C633.546204,823.459473 631.591797,820.427002 631.213623,818.095032 
	C630.689636,814.864136 633.475281,812.764771 636.598206,812.947388 
	C642.102356,813.269226 647.556458,814.374634 653.057007,814.867554 
	C655.478943,815.084595 658.571350,815.481140 660.306335,814.277893 
	C665.670044,810.557861 664.323608,803.676880 657.736938,801.096375 
	C648.669067,797.543884 639.242126,796.796326 629.836121,799.648254 
	C618.826233,802.986511 613.540039,812.415405 615.831970,823.730347 
	C617.637451,832.643799 624.281921,836.326538 631.948608,838.990601 
	C637.113281,840.785400 642.463928,842.202759 647.340698,844.587769 
	C649.201050,845.497681 650.963379,848.650330 650.932739,850.754150 
	C650.907166,852.514954 648.501038,855.166931 646.621521,855.763916 
	C643.592834,856.726013 640.019531,856.924927 636.877441,856.349060 
	C632.518494,855.549927 628.376282,853.629517 624.082764,852.392395 
	C621.122253,851.539490 618.171143,851.210510 616.187012,854.533508 
	C614.274475,857.736633 614.759644,860.869507 617.140320,863.239380 
	C619.186340,865.276001 621.850769,866.957825 624.546875,868.026794 
	C634.157288,871.836914 644.015564,871.965698 653.847107,868.858337 
	C661.913513,866.308838 666.881592,859.221558 667.123596,850.844299 
	C667.390564,841.603027 662.993530,835.405762 654.346497,831.056213 
M486.483154,802.037415 
	C486.422699,804.566956 485.520447,807.478394 486.461761,809.553467 
	C489.142578,815.463013 495.339935,813.077026 499.944153,813.999756 
	C499.944153,826.179138 499.655518,837.977722 500.009369,849.757080 
	C500.592072,869.155212 519.791138,873.654053 531.158752,869.260742 
	C535.251343,867.679077 536.520203,864.664673 535.271179,860.451111 
	C534.124329,856.582336 531.518005,855.365845 527.696777,855.609741 
	C517.939514,856.232544 515.565308,853.974854 515.530823,844.188354 
	C515.511475,838.699219 515.626160,833.209656 515.652954,827.720215 
	C515.675293,823.139832 515.657532,818.559326 515.657532,813.647949 
	C521.158386,813.647949 525.819702,813.905640 530.438538,813.572632 
	C534.727966,813.263428 536.901062,810.375244 536.938416,806.183472 
	C536.976257,801.933167 534.162231,799.107727 529.726624,798.926941 
	C525.280945,798.745850 520.822083,798.887268 516.098022,798.887268 
	C515.919495,794.885010 515.834412,791.272705 515.578674,787.672546 
	C515.251709,783.071533 512.511841,780.742981 508.070374,780.719910 
	C503.650726,780.696960 500.841309,782.885132 500.556000,787.567688 
	C500.329163,791.290527 500.188873,795.018616 500.076630,797.358643 
	C495.122894,798.887451 491.028809,800.150940 486.483154,802.037415 
z"/>
<path fill="#FEEEE0" opacity="1.000000" stroke="none" 
	d="
M418.231506,482.121765 
	C405.971283,495.878662 393.711029,509.635559 381.202881,523.670654 
	C378.257324,521.342041 375.683472,519.285950 373.087006,517.258850 
	C367.385925,512.807983 366.619965,512.701416 361.524200,518.036743 
	C349.677734,530.440186 338.050873,543.053101 326.222107,555.473572 
	C322.696960,559.175110 318.797394,562.520020 315.585327,565.542908 
	C309.592590,559.940735 303.308441,554.066162 296.464783,547.668518 
	C272.323669,572.385254 248.291702,596.990234 224.280609,621.573853 
	C156.090485,525.063904 140.785095,354.198944 254.400055,227.348663 
	C364.889038,103.988518 563.876160,79.012314 706.580933,194.367691 
	C840.132324,302.323975 859.047485,492.743622 774.071716,620.537842 
	C768.639099,615.360718 762.998779,610.276733 757.686768,604.870117 
	C739.943298,586.810791 722.268921,568.682739 704.696594,550.457092 
	C701.931213,547.588928 700.085999,547.755554 697.415344,550.485779 
	C692.527161,555.483032 687.326050,560.174255 682.125854,565.116211 
	C667.260864,548.356262 651.978577,531.096008 636.657410,513.870422 
	C632.343323,509.020050 627.970398,504.219116 623.517212,499.496613 
	C621.162659,496.999664 618.824524,496.522919 615.889893,499.251862 
	C611.763000,503.089508 607.175232,506.431549 602.556274,510.170380 
	C594.755310,501.532196 587.086243,493.040039 579.491699,484.022156 
	C581.041016,480.167938 582.011169,476.482666 584.071716,473.568420 
	C598.378845,453.333710 605.584167,430.822144 605.890686,406.148468 
	C605.957947,400.739441 604.231323,395.324554 604.096863,389.893402 
	C603.762695,376.390991 598.232178,364.518372 591.874023,353.288544 
	C586.657959,344.075714 579.366028,336.033630 572.940186,327.513428 
	C571.297363,325.335175 569.793396,322.818787 567.631104,321.309509 
	C561.197876,316.819153 554.628723,312.471191 547.811096,308.598450 
	C540.773682,304.600830 533.637695,300.508118 526.062256,297.813690 
	C520.322876,295.772339 513.848694,295.463562 507.659729,295.104736 
	C500.189484,294.671631 492.643768,294.579651 485.190033,295.135529 
	C479.508026,295.559265 473.815918,296.859344 468.310150,298.413727 
	C458.324280,301.232971 448.954437,305.567505 440.696320,311.941498 
	C437.835663,314.149506 435.494965,317.021759 432.817444,319.482544 
	C432.058685,320.179840 430.922119,320.965118 430.005157,320.911865 
	C423.024719,320.506561 420.230316,327.008759 417.780090,330.790131 
	C415.783051,333.872070 415.093262,337.256226 411.015564,338.446442 
	C410.316254,338.650543 409.595123,339.410614 409.250153,340.097687 
	C406.605286,345.365753 404.071442,350.689423 401.455475,355.972198 
	C400.721680,357.454102 399.809723,358.846771 399.013672,360.299072 
	C397.686157,362.721008 395.679138,365.026581 395.198608,367.611725 
	C393.249084,378.098999 389.228607,388.000916 388.463928,398.930573 
	C387.639526,410.713928 388.055481,422.364807 391.041382,433.402710 
	C394.487335,446.141388 398.645721,459.048706 406.997131,469.788635 
	C410.400421,474.165253 414.466858,478.026215 418.231506,482.121765 
M362.419189,421.001923 
	C366.988953,418.798767 369.254913,415.310425 368.133850,410.175140 
	C367.150146,405.668884 364.057526,403.773804 357.777710,403.755920 
	C342.809113,403.713287 327.840363,403.737823 312.871674,403.731567 
	C301.395660,403.726776 289.919617,403.697083 278.443665,403.719452 
	C274.693207,403.726746 270.981506,404.923157 270.098419,408.675842 
	C269.423096,411.545746 270.065521,415.152832 271.304626,417.898132 
	C272.150452,419.772064 275.034149,420.726166 277.650330,422.612152 
	C278.129730,422.728424 278.609070,422.945892 279.088562,422.946411 
	C305.441620,422.973419 331.794769,423.005096 358.147552,422.921539 
	C359.386047,422.917603 360.621277,421.871948 362.419189,421.001923 
M641.614990,422.568787 
	C642.256775,422.708984 642.898376,422.971039 643.540283,422.971771 
	C665.473022,422.996063 687.405884,423.012421 709.338440,422.953979 
	C710.564880,422.950714 711.789612,422.300293 713.756836,421.681641 
	C714.421387,421.634766 715.092896,421.633392 715.749451,421.533905 
	C721.816162,420.614746 725.306946,416.896698 724.946106,411.761810 
	C724.585449,406.631287 721.092957,403.793518 714.859680,403.677216 
	C711.862610,403.621277 708.862671,403.737091 705.864075,403.739868 
	C681.706604,403.762085 657.548950,403.725098 633.391846,403.827576 
	C627.244324,403.853668 624.063049,406.945648 623.962830,412.362244 
	C623.867004,417.541229 627.268127,421.017273 633.041382,421.532959 
	C635.687561,421.769318 638.347351,421.852936 641.614990,422.568787 
M504.982849,188.924286 
	C504.340393,182.713089 500.919922,179.224014 495.678162,179.432999 
	C490.940643,179.621887 488.006042,183.166504 487.702515,189.095139 
	C487.651459,190.092636 487.673767,191.094131 487.671295,192.093811 
	C487.625214,210.591217 487.564423,229.088608 487.551636,247.586044 
	C487.549561,250.573761 487.514801,253.596878 487.935059,256.540833 
	C488.511353,260.577911 491.020782,263.263153 495.099731,263.771362 
	C499.152466,264.276276 502.350677,262.346466 503.901642,258.617523 
	C504.756226,256.562927 504.925873,254.109802 504.934113,251.834641 
	C505.008972,231.170395 504.980042,210.505798 504.982849,188.924286 
M363.434204,268.065063 
	C358.428192,262.972717 353.528564,257.769653 348.382141,252.823395 
	C344.337555,248.936096 338.826996,248.856766 335.468933,252.257614 
	C332.142303,255.626617 332.183868,260.645355 336.166382,264.749573 
	C350.743896,279.772644 365.418274,294.703186 380.187775,309.537598 
	C383.953766,313.320129 389.476318,312.674194 392.873718,308.558472 
	C396.113129,304.634155 395.821594,301.031647 391.221710,296.260223 
	C382.227478,286.930695 373.034576,277.792694 363.434204,268.065063 
M616.691956,306.220276 
	C621.720215,301.126343 626.732544,296.016510 631.780212,290.941956 
	C640.467102,282.208862 649.203186,273.524597 657.861755,264.763580 
	C661.117065,261.469727 662.193970,257.642517 659.539551,253.488922 
	C657.264893,249.929657 653.647095,248.887787 649.933899,250.252991 
	C647.578125,251.119125 645.524109,253.147171 643.674561,254.994446 
	C630.603455,268.049805 617.686584,281.259918 604.579224,294.278534 
	C598.643311,300.174255 597.384888,304.953308 601.257141,309.154938 
	C605.241821,313.478607 609.863098,312.725220 616.691956,306.220276 
M339.924622,340.715942 
	C332.099701,335.392700 324.281067,330.060181 316.447266,324.750031 
	C312.325592,321.956116 308.327454,318.932800 303.994751,316.511963 
	C300.380646,314.492615 296.715332,315.338440 294.342102,318.850433 
	C292.016876,322.291351 292.500763,325.823853 295.403351,328.849731 
	C296.311951,329.796997 297.440002,330.556030 298.539093,331.294861 
	C309.017120,338.338379 319.545929,345.307037 329.980804,352.413727 
	C333.743103,354.976105 337.363861,355.477478 340.844574,352.272766 
	C343.948700,349.414856 343.727936,345.543396 339.924622,340.715942 
M653.406128,353.119019 
	C656.078491,353.217957 659.440002,354.413391 661.311096,353.237427 
	C673.250977,345.733490 684.943848,337.824585 696.539124,329.790710 
	C700.667725,326.930145 701.229431,322.374420 698.631836,318.880646 
	C696.024414,315.373718 691.581116,314.648499 687.543884,317.394379 
	C676.416931,324.962311 665.319092,332.575928 654.319763,340.327667 
	C649.346619,343.832489 649.070801,347.359955 653.406128,353.119019 
M592.610413,229.775208 
	C593.820374,225.284256 592.545227,221.703796 588.095947,220.123459 
	C583.734070,218.574127 580.384399,220.434982 578.154480,224.442307 
	C574.050049,231.818146 569.835266,239.133301 565.794250,246.543396 
	C563.264465,251.182281 564.208740,255.525681 567.983093,257.827271 
	C571.729675,260.111908 576.143127,258.916443 578.919006,254.240662 
	C583.554443,246.432632 587.831482,238.411819 592.610413,229.775208 
M425.076965,242.417480 
	C421.557251,236.004395 418.147919,229.527267 414.477661,223.201523 
	C412.169006,219.222580 408.345947,218.585236 404.501343,220.387970 
	C400.705048,222.168045 399.044983,225.870605 400.945801,229.577423 
	C405.563812,238.582916 410.522827,247.438507 415.838501,256.049500 
	C418.100647,259.714020 422.096100,259.541504 425.616547,257.379028 
	C429.093414,255.243362 430.027985,252.124634 428.208313,248.363754 
	C427.340973,246.571167 426.389618,244.819229 425.076965,242.417480 
z"/>
<path fill="#FEF8F0" opacity="1.000000" stroke="none" 
	d="
M418.527710,481.973999 
	C414.466858,478.026215 410.400421,474.165253 406.997131,469.788635 
	C398.645721,459.048706 394.487335,446.141388 391.041382,433.402710 
	C388.055481,422.364807 387.639526,410.713928 388.463928,398.930573 
	C389.228607,388.000916 393.249084,378.098999 395.198608,367.611725 
	C395.679138,365.026581 397.686157,362.721008 399.013672,360.299072 
	C399.809723,358.846771 400.721680,357.454102 401.455475,355.972198 
	C404.071442,350.689423 406.605286,345.365753 409.250153,340.097687 
	C409.595123,339.410614 410.316254,338.650543 411.015564,338.446442 
	C415.093262,337.256226 415.783051,333.872070 417.780090,330.790131 
	C420.230316,327.008759 423.024719,320.506561 430.005157,320.911865 
	C430.922119,320.965118 432.058685,320.179840 432.817444,319.482544 
	C435.494965,317.021759 437.835663,314.149506 440.696320,311.941498 
	C448.954437,305.567505 458.324280,301.232971 468.310150,298.413727 
	C473.815918,296.859344 479.508026,295.559265 485.190033,295.135529 
	C492.643768,294.579651 500.189484,294.671631 507.659729,295.104736 
	C513.848694,295.463562 520.322876,295.772339 526.062256,297.813690 
	C533.637695,300.508118 540.773682,304.600830 547.811096,308.598450 
	C554.628723,312.471191 561.197876,316.819153 567.631104,321.309509 
	C569.793396,322.818787 571.297363,325.335175 572.940186,327.513428 
	C579.366028,336.033630 586.657959,344.075714 591.874023,353.288544 
	C598.232178,364.518372 603.762695,376.390991 604.096863,389.893402 
	C604.231323,395.324554 605.957947,400.739441 605.890686,406.148468 
	C605.584167,430.822144 598.378845,453.333710 584.071716,473.568420 
	C582.011169,476.482666 581.041016,480.167938 579.362488,483.718140 
	C564.212891,467.669464 549.282837,451.384521 534.315979,435.133453 
	C523.393250,423.273560 512.433655,411.447510 501.457306,399.637268 
	C500.127106,398.206024 498.589722,396.967346 496.402802,394.952484 
	C470.347290,424.129700 444.585602,452.977936 418.527710,481.973999 
z"/>
<path fill="#FBEDE1" opacity="1.000000" stroke="none" 
	d="
M496.836853,449.003754 
	C496.921906,451.377197 497.006958,453.750641 496.810822,456.770569 
	C496.707397,458.284637 496.885193,459.152252 497.062958,460.019867 
	C497.357025,466.047791 497.651093,472.075714 497.633209,478.894104 
	C497.584320,485.467133 497.847382,491.249664 498.110413,497.032227 
	C498.397308,504.717133 498.684204,512.402039 498.674927,520.827820 
	C498.551758,523.378052 498.724792,525.187378 498.897827,526.996765 
	C499.268036,537.977295 499.638245,548.957886 500.026001,560.774902 
	C500.982880,563.069336 501.764069,564.665100 502.891876,565.958679 
	C505.962769,569.480957 509.180145,572.875488 512.339478,576.320679 
	C513.047363,576.834229 513.755249,577.347778 514.463135,577.861328 
	C511.979950,579.430054 509.496796,580.998779 507.013672,582.567566 
	C498.452698,593.559509 489.701721,604.409607 481.368958,615.571838 
	C462.278992,641.144043 443.396851,666.871399 424.410095,692.520813 
	C423.686951,693.497681 422.754303,694.319519 421.068146,696.124817 
	C424.923767,680.598145 428.497711,666.407837 431.968323,652.192383 
	C442.973602,607.115845 453.917999,562.024414 464.948242,516.954041 
	C466.444275,510.841217 468.296234,504.815552 470.426971,498.299164 
	C471.270111,495.908325 471.669647,493.967834 472.069183,492.027374 
	C473.019104,488.257935 473.968994,484.488495 475.386047,480.322754 
	C476.771729,479.371155 477.690277,478.815826 479.481903,477.732635 
	C477.557678,477.732635 476.799042,477.732635 476.040405,477.732635 
	C476.049683,477.366333 476.058960,477.000031 476.553162,476.238892 
	C480.577759,471.501038 481.580933,466.465393 481.085571,461.020569 
	C481.193176,460.451172 481.300781,459.881805 481.986328,459.080139 
	C487.066711,454.892975 487.682709,449.825378 486.727051,444.307831 
	C486.958557,443.316803 487.190033,442.325775 488.089447,441.155396 
	C493.308258,439.675812 494.690979,443.387177 496.750061,446.028717 
	C496.811676,446.467682 496.873291,446.906677 496.734131,447.775421 
	C496.634491,448.471375 496.735657,448.737579 496.836853,449.003754 
z"/>
<path fill="#F6EDE2" opacity="1.000000" stroke="none" 
	d="
M309.652100,799.111816 
	C325.582031,804.409302 335.677582,818.107300 335.099548,833.170227 
	C334.892334,838.569397 332.480194,841.062134 327.116852,841.082947 
	C312.969757,841.137817 298.822296,841.101562 284.672241,841.101562 
	C284.921875,848.373169 291.884125,855.296570 300.597656,855.968689 
	C304.753540,856.289185 309.066528,855.074158 313.253204,854.268127 
	C315.173889,853.898499 316.902252,852.558411 318.822357,852.151062 
	C322.526459,851.365295 325.792725,852.172729 327.732239,855.851624 
	C329.759277,859.696533 328.374939,863.311829 325.122192,864.888916 
	C319.840820,867.449463 314.137085,869.699890 308.378723,870.614014 
	C288.388519,873.787292 269.308502,858.851074 267.219574,838.273926 
	C265.291595,819.282471 278.545593,800.501221 298.827332,798.472534 
	C302.247925,798.130432 305.771729,798.820068 309.652100,799.111816 
M313.919098,817.538086 
	C307.689331,812.326233 300.813477,811.465637 293.569916,814.948364 
	C288.354095,817.456238 285.376160,821.724609 284.649963,827.605835 
	C296.331909,827.605835 307.505554,827.605835 320.002655,827.605835 
	C317.823822,823.889282 316.121826,820.986084 313.919098,817.538086 
z"/>
<path fill="#F6ECE1" opacity="1.000000" stroke="none" 
	d="
M679.024658,859.012146 
	C678.954285,858.557190 678.883972,858.102295 679.168945,857.099487 
	C679.369446,855.373169 679.214661,854.194641 679.059937,853.016174 
	C679.004456,851.932861 678.948975,850.849609 679.245544,849.085327 
	C679.426453,845.942688 679.255310,843.481079 679.084106,841.019470 
	C679.020264,838.630127 678.956421,836.240784 679.252930,833.097412 
	C679.441406,824.568726 679.269470,816.794128 679.097534,809.019470 
	C679.033813,801.647583 678.970032,794.275757 679.138062,786.349060 
	C679.423706,785.697205 679.547729,785.555664 679.519348,785.510986 
	C679.404846,785.330994 679.243225,785.180908 679.099121,785.019775 
	C679.065552,781.697754 678.882202,778.368774 679.034607,775.055298 
	C679.249023,770.393127 682.098633,767.620117 686.560059,767.395935 
	C690.806152,767.182617 694.045044,769.912781 694.278198,774.728088 
	C694.623779,781.866089 694.493347,789.028625 694.512024,796.180786 
	C694.539307,806.657898 694.519043,817.135132 694.519043,828.867371 
	C696.074158,827.203308 696.940369,826.424500 697.631775,825.513000 
	C703.250000,818.105896 708.543762,810.423706 714.581787,803.378601 
	C716.838135,800.745911 720.634888,798.863647 724.065674,798.039307 
	C725.875977,797.604248 729.176697,799.686157 730.380066,801.550903 
	C731.381836,803.103210 731.150940,806.614258 730.002075,808.190674 
	C724.919250,815.164795 719.412354,821.842041 713.832642,828.435242 
	C711.808228,830.827393 711.215149,832.484985 713.450867,835.214966 
	C719.450745,842.541321 725.251221,850.042358 730.866089,857.669006 
	C735.290649,863.678833 733.356079,870.078308 726.802795,870.390564 
	C723.868225,870.530396 719.998230,868.503235 717.937500,866.213257 
	C711.946350,859.555359 706.654846,852.267761 701.088867,845.227173 
	C700.068115,843.936035 699.046692,842.645386 697.059814,840.133850 
	C695.958069,843.332581 694.698120,845.552246 694.502441,847.862000 
	C694.110413,852.490723 694.196655,857.170593 694.278748,861.825928 
	C694.363220,866.621460 692.666870,870.042236 687.565674,870.644287 
	C682.514587,871.240417 679.975403,868.318665 679.263306,863.111328 
	C679.388611,861.348572 679.206604,860.180359 679.024658,859.012146 
z"/>
<path fill="#F6ECE0" opacity="1.000000" stroke="none" 
	d="
M587.023254,826.086060 
	C586.676697,815.058960 583.615540,811.857361 573.135986,812.139709 
	C568.546143,812.263367 563.826721,813.023132 559.458008,814.412170 
	C554.850647,815.877258 552.798645,813.521729 551.214294,810.237244 
	C549.409424,806.495422 550.685059,803.272156 554.299805,801.430847 
	C556.626282,800.245850 559.272278,799.299561 561.848328,799.070557 
	C567.954224,798.527649 574.198486,797.674194 580.216614,798.385803 
	C594.462097,800.070129 602.445740,809.889465 602.885742,825.331604 
	C603.103943,832.986389 602.824890,840.654602 602.990906,848.311951 
	C603.076843,852.272705 603.493530,856.243652 604.034302,860.172363 
	C604.593933,864.238708 604.557678,867.961914 600.151001,869.887268 
	C595.915527,871.737732 592.784912,869.944519 590.276550,866.514282 
	C589.705322,865.733093 589.102783,864.974915 588.408447,864.067261 
	C580.333740,870.435425 571.438477,872.232971 561.559082,870.015442 
	C550.979248,867.640808 543.893188,859.341553 543.951904,848.943237 
	C544.010437,838.590271 551.132751,829.857788 561.874817,828.188721 
	C568.557251,827.150452 575.440002,827.412659 582.230713,827.051453 
	C583.811707,826.967407 585.384033,826.721802 587.023254,826.086060 
M573.884216,856.693237 
	C586.019775,853.404175 587.660828,850.805542 585.997803,836.370850 
	C579.047363,837.741577 572.081665,838.820740 565.286621,840.564819 
	C561.144104,841.628052 559.276306,845.067505 559.582764,849.367432 
	C559.890198,853.681274 562.942566,855.719849 566.637146,856.668640 
	C568.658142,857.187622 570.907166,856.818542 573.884216,856.693237 
z"/>
<path fill="#F6ECE0" opacity="1.000000" stroke="none" 
	d="
M462.219116,800.601685 
	C478.757538,807.762085 487.720856,825.147156 484.049866,842.432373 
	C480.443878,859.411438 465.884766,871.148254 448.692017,870.935974 
	C431.851349,870.728027 416.177795,856.129395 414.956085,839.513672 
	C413.464050,819.220520 425.425995,801.645752 443.249786,799.226624 
	C449.289825,798.406921 455.652069,799.961243 462.219116,800.601685 
M431.154510,829.233459 
	C430.964539,831.383911 430.621033,833.533508 430.609924,835.684875 
	C430.545654,848.131958 441.041901,857.910706 452.370544,856.032654 
	C461.814972,854.466980 469.085968,845.472717 469.108154,835.328247 
	C469.133118,823.905029 462.347443,815.239807 452.027466,813.516479 
	C443.059296,812.018982 435.026764,817.853943 431.154510,829.233459 
z"/>
<path fill="#F6EBDF" opacity="1.000000" stroke="none" 
	d="
M404.535461,849.993652 
	C404.608215,854.487549 404.899902,858.493774 404.701233,862.475586 
	C404.438782,867.735718 401.663269,870.470947 397.066345,870.559082 
	C392.620117,870.644287 389.105713,867.284546 389.027496,862.210999 
	C388.850342,850.721191 388.963562,839.227051 388.930969,827.734802 
	C388.908905,819.965088 386.114441,815.401917 380.621918,814.054871 
	C374.473145,812.546875 365.817535,816.116638 362.943665,821.626709 
	C362.152130,823.144348 361.973267,825.114136 361.955292,826.880920 
	C361.846954,837.540039 361.897858,848.200745 361.816681,858.860291 
	C361.801605,860.840698 362.134674,863.421326 361.069824,864.669373 
	C358.979095,867.120056 356.248444,869.972656 353.359406,870.553284 
	C349.791107,871.270447 346.861603,868.425171 345.844818,864.635376 
	C345.378479,862.897217 345.265717,861.019958 345.270782,859.206543 
	C345.315491,843.220093 345.421509,827.233887 345.514160,811.247559 
	C345.521881,809.915771 345.524078,808.581909 345.597778,807.252869 
	C345.906494,801.683533 348.199524,798.452209 352.236237,798.264771 
	C357.207092,798.034058 359.339325,801.028870 359.660919,804.659973 
	C365.351624,802.558777 370.926361,799.505676 376.846222,798.514893 
	C390.528656,796.224976 402.668182,806.631958 403.923737,821.547058 
	C404.703888,830.814575 404.370056,840.175964 404.535461,849.993652 
z"/>
<path fill="#F7EDE2" opacity="1.000000" stroke="none" 
	d="
M243.211853,833.221802 
	C237.455399,840.304626 231.922012,847.108337 225.415085,855.109070 
	C232.030121,855.109070 237.410233,855.115540 242.790314,855.106995 
	C247.288055,855.099915 251.791809,854.922791 256.281830,855.100586 
	C260.870880,855.282349 263.588623,858.073486 263.712402,862.264526 
	C263.826202,866.117676 260.811005,869.832581 256.631104,869.886414 
	C240.974075,870.087952 225.309799,870.172668 209.655304,869.898193 
	C203.524612,869.790771 200.469391,862.540649 204.434906,857.093262 
	C210.597336,848.627930 217.358353,840.595886 223.925858,832.428589 
	C228.666077,826.533813 233.504150,820.717651 239.099350,813.889160 
	C230.780960,813.889160 223.710587,813.896240 216.640228,813.885010 
	C214.475342,813.881531 212.262299,814.105408 210.155823,813.739136 
	C205.906067,813.000183 203.348755,810.334717 203.116333,805.959229 
	C202.920105,802.265137 206.258667,799.025208 210.682632,798.894958 
	C217.671814,798.689087 224.672180,798.889343 231.667618,798.862427 
	C238.329514,798.836853 244.991394,798.760071 251.652756,798.667908 
	C255.618683,798.613098 259.601105,799.660034 260.460815,803.660400 
	C261.099609,806.632935 260.397400,810.702637 258.704254,813.211975 
	C254.062546,820.091248 248.582855,826.404968 243.211853,833.221802 
z"/>
<path fill="#F5EBE1" opacity="1.000000" stroke="none" 
	d="
M612.890076,529.869385 
	C614.403015,527.689819 615.730713,525.819702 617.639771,523.130615 
	C637.320068,562.589783 656.641357,601.329224 675.962585,640.068604 
	C675.498474,640.313782 675.034363,640.559021 674.570251,640.804199 
	C654.249329,616.012390 633.891113,591.250916 613.665405,566.381592 
	C611.658630,563.914062 610.196655,564.901917 608.222046,565.970825 
	C599.161316,570.875488 590.072998,575.729797 580.966553,580.549133 
	C579.588379,581.278503 578.062073,581.727844 576.164246,582.481445 
	C588.615906,564.658569 600.660339,547.418701 612.890076,529.869385 
z"/>
<path fill="#F5EBE0" opacity="1.000000" stroke="none" 
	d="
M784.324402,832.601196 
	C792.717590,838.694397 796.131226,846.364075 793.862000,854.740967 
	C791.436279,863.695557 785.199890,868.413757 776.150574,870.115051 
	C767.534302,871.734802 759.194641,870.964661 751.175903,867.825989 
	C748.229980,866.672913 745.136230,864.533142 743.460266,861.962891 
	C742.272949,860.142151 742.479004,856.286499 743.693848,854.376465 
	C744.694214,852.803650 748.260132,851.826050 750.391602,852.214966 
	C755.576843,853.161194 760.511108,855.454773 765.690857,856.466248 
	C772.138794,857.725403 777.037720,855.473633 777.983704,851.651855 
	C779.011658,847.499329 776.738281,844.839417 769.684204,842.284790 
	C765.012695,840.592896 760.192566,839.296204 755.569641,837.488464 
	C746.366943,833.889954 742.055176,827.686157 742.391602,819.040344 
	C742.764893,809.447693 748.168091,802.281860 757.412170,799.578918 
	C766.680176,796.869019 775.884888,797.730713 784.852966,800.981323 
	C788.594604,802.337524 790.939148,805.014282 790.373291,809.395081 
	C789.754089,814.189087 786.240112,816.150635 781.498047,815.228516 
	C775.581482,814.078003 769.541138,813.178040 763.539673,813.082214 
	C761.707947,813.052979 758.397461,815.973083 758.328613,817.647949 
	C758.240234,819.796875 760.235107,822.990540 762.230774,824.064514 
	C766.269287,826.237671 770.937317,827.219543 775.298340,828.821838 
	C778.244385,829.904236 781.109375,831.207214 784.324402,832.601196 
z"/>
<path fill="#F6ECE0" opacity="1.000000" stroke="none" 
	d="
M654.693726,831.194763 
	C662.993530,835.405762 667.390564,841.603027 667.123596,850.844299 
	C666.881592,859.221558 661.913513,866.308838 653.847107,868.858337 
	C644.015564,871.965698 634.157288,871.836914 624.546875,868.026794 
	C621.850769,866.957825 619.186340,865.276001 617.140320,863.239380 
	C614.759644,860.869507 614.274475,857.736633 616.187012,854.533508 
	C618.171143,851.210510 621.122253,851.539490 624.082764,852.392395 
	C628.376282,853.629517 632.518494,855.549927 636.877441,856.349060 
	C640.019531,856.924927 643.592834,856.726013 646.621521,855.763916 
	C648.501038,855.166931 650.907166,852.514954 650.932739,850.754150 
	C650.963379,848.650330 649.201050,845.497681 647.340698,844.587769 
	C642.463928,842.202759 637.113281,840.785400 631.948608,838.990601 
	C624.281921,836.326538 617.637451,832.643799 615.831970,823.730347 
	C613.540039,812.415405 618.826233,802.986511 629.836121,799.648254 
	C639.242126,796.796326 648.669067,797.543884 657.736938,801.096375 
	C664.323608,803.676880 665.670044,810.557861 660.306335,814.277893 
	C658.571350,815.481140 655.478943,815.084595 653.057007,814.867554 
	C647.556458,814.374634 642.102356,813.269226 636.598206,812.947388 
	C633.475281,812.764771 630.689636,814.864136 631.213623,818.095032 
	C631.591797,820.427002 633.546204,823.459473 635.603821,824.382568 
	C641.635376,827.088562 648.069885,828.896484 654.693726,831.194763 
z"/>
<path fill="#F6ECDF" opacity="1.000000" stroke="none" 
	d="
M364.161957,662.992310 
	C364.933533,649.698364 365.799164,636.408813 366.432190,623.108276 
	C366.699432,617.493286 366.476685,611.854919 366.476685,605.512390 
	C354.912598,611.591309 343.432098,617.626343 331.951569,623.661377 
	C331.751556,623.346802 331.551544,623.032227 331.351532,622.717651 
	C355.696259,595.512024 380.040985,568.306396 404.385712,541.100769 
	C404.713806,541.238464 405.041901,541.376160 405.369965,541.513794 
	C404.391693,545.071228 403.502930,548.656067 402.421112,552.181763 
	C391.852631,586.624023 381.258179,621.058411 370.646393,655.487366 
	C369.937317,657.787781 369.028442,660.026611 367.683044,662.646912 
	C366.156372,662.997253 365.159149,662.994751 364.161957,662.992310 
z"/>
<path fill="#F5EBDF" opacity="1.000000" stroke="none" 
	d="
M486.708954,801.725952 
	C491.028809,800.150940 495.122894,798.887451 500.076630,797.358643 
	C500.188873,795.018616 500.329163,791.290527 500.556000,787.567688 
	C500.841309,782.885132 503.650726,780.696960 508.070374,780.719910 
	C512.511841,780.742981 515.251709,783.071533 515.578674,787.672546 
	C515.834412,791.272705 515.919495,794.885010 516.098022,798.887268 
	C520.822083,798.887268 525.280945,798.745850 529.726624,798.926941 
	C534.162231,799.107727 536.976257,801.933167 536.938416,806.183472 
	C536.901062,810.375244 534.727966,813.263428 530.438538,813.572632 
	C525.819702,813.905640 521.158386,813.647949 515.657532,813.647949 
	C515.657532,818.559326 515.675293,823.139832 515.652954,827.720215 
	C515.626160,833.209656 515.511475,838.699219 515.530823,844.188354 
	C515.565308,853.974854 517.939514,856.232544 527.696777,855.609741 
	C531.518005,855.365845 534.124329,856.582336 535.271179,860.451111 
	C536.520203,864.664673 535.251343,867.679077 531.158752,869.260742 
	C519.791138,873.654053 500.592072,869.155212 500.009369,849.757080 
	C499.655518,837.977722 499.944153,826.179138 499.944153,813.999756 
	C495.339935,813.077026 489.142578,815.463013 486.461761,809.553467 
	C485.520447,807.478394 486.422699,804.566956 486.708954,801.725952 
z"/>
<path fill="#ECEAE6" opacity="1.000000" stroke="none" 
	d="
M507.306580,582.766846 
	C509.496796,580.998779 511.979950,579.430054 514.463135,577.861328 
	C513.755249,577.347778 513.047363,576.834229 512.339478,576.320679 
	C509.180145,572.875488 505.962769,569.480957 502.891876,565.958679 
	C501.764069,564.665100 500.982880,563.069336 500.056305,561.233643 
	C517.852478,579.013184 535.671814,597.135559 553.397522,615.349060 
	C558.727173,620.825439 563.796021,626.555542 568.929260,632.755249 
	C568.792542,633.530457 568.710999,633.719727 568.629456,633.908936 
	C551.154907,619.166016 533.692200,604.409058 516.193848,589.694397 
	C513.411011,587.354248 510.468323,585.204224 507.306580,582.766846 
z"/>
<path fill="#E3E1DD" opacity="1.000000" stroke="none" 
	d="
M496.827271,445.574036 
	C494.690979,443.387177 493.308258,439.675812 488.333374,440.969238 
	C490.078583,434.030762 492.247742,427.099060 494.416870,420.167358 
	C494.816925,420.227234 495.216949,420.287079 495.617004,420.346924 
	C496.046173,428.604370 496.475342,436.861847 496.827271,445.574036 
z"/>
<path fill="#E3E1DD" opacity="1.000000" stroke="none" 
	d="
M364.064697,663.398376 
	C365.159149,662.994751 366.156372,662.997253 367.527374,663.002747 
	C366.489197,667.666321 365.077209,672.326843 363.665222,676.987366 
	C363.424347,676.951355 363.183441,676.915405 362.942566,676.879456 
	C363.284210,672.521118 363.625854,668.162842 364.064697,663.398376 
z"/>
<path fill="#E3E1DD" opacity="1.000000" stroke="none" 
	d="
M486.464600,444.585236 
	C487.682709,449.825378 487.066711,454.892975 482.213013,458.891113 
	C483.308563,454.243774 484.755341,449.553192 486.464600,444.585236 
z"/>
<path fill="#E3E1DD" opacity="1.000000" stroke="none" 
	d="
M480.892578,461.331604 
	C481.580933,466.465393 480.577759,471.501038 476.677765,475.990906 
	C477.778168,471.306030 479.238861,466.474365 480.892578,461.331604 
z"/>
<path fill="#E3E1DD" opacity="1.000000" stroke="none" 
	d="
M498.228302,496.673340 
	C497.847382,491.249664 497.584320,485.467133 497.562042,479.351471 
	C497.983948,484.783752 498.165070,490.549103 498.228302,496.673340 
z"/>
<path fill="#FEFCF7" opacity="1.000000" stroke="none" 
	d="
M679.022217,809.481445 
	C679.269470,816.794128 679.441406,824.568726 679.346497,832.658203 
	C679.035400,825.296509 678.991089,817.619934 679.022217,809.481445 
z"/>
<path fill="#E3E1DD" opacity="1.000000" stroke="none" 
	d="
M471.875610,492.319336 
	C471.669647,493.967834 471.270111,495.908325 470.547424,497.928772 
	C470.710175,496.209595 471.196136,494.410431 471.875610,492.319336 
z"/>
<path fill="#FEFCF7" opacity="1.000000" stroke="none" 
	d="
M679.008911,841.456055 
	C679.255310,843.481079 679.426453,845.942688 679.341980,848.687988 
	C679.035461,846.612000 678.984558,844.252258 679.008911,841.456055 
z"/>
<path fill="#E3E1DD" opacity="1.000000" stroke="none" 
	d="
M475.872620,477.923279 
	C476.799042,477.732635 477.557678,477.732635 479.481903,477.732635 
	C477.690277,478.815826 476.771729,479.371155 475.535400,479.972717 
	C475.380005,479.383942 475.542450,478.748932 475.872620,477.923279 
z"/>
<path fill="#E3E1DD" opacity="1.000000" stroke="none" 
	d="
M498.986328,526.575928 
	C498.724792,525.187378 498.551758,523.378052 498.605164,521.292725 
	C498.912689,522.729553 498.993744,524.442261 498.986328,526.575928 
z"/>
<path fill="#E3E1DD" opacity="1.000000" stroke="none" 
	d="
M497.164978,459.780579 
	C496.885193,459.152252 496.707397,458.284637 496.754089,457.212891 
	C497.074707,457.852936 497.170868,458.697144 497.164978,459.780579 
z"/>
<path fill="#FEFCF7" opacity="1.000000" stroke="none" 
	d="
M678.972900,853.406982 
	C679.214661,854.194641 679.369446,855.373169 679.279053,856.767883 
	C678.984619,855.922058 678.935242,854.859924 678.972900,853.406982 
z"/>
<path fill="#FEFCF7" opacity="1.000000" stroke="none" 
	d="
M678.935303,859.401978 
	C679.206604,860.180359 679.388611,861.348572 679.335632,862.741272 
	C679.015808,861.907776 678.930847,860.849854 678.935303,859.401978 
z"/>
<path fill="#FEFCF7" opacity="1.000000" stroke="none" 
	d="
M679.026367,785.259033 
	C679.243225,785.180908 679.404846,785.330994 679.519348,785.510986 
	C679.547729,785.555664 679.423706,785.697205 679.229736,785.887024 
	C679.044250,785.819336 678.998962,785.658813 679.026367,785.259033 
z"/>
<path fill="#ECEAE6" opacity="1.000000" stroke="none" 
	d="
M572.997803,637.002136 
	C573.309448,637.220947 573.621155,637.439697 573.932800,637.658569 
	C573.586243,637.650635 573.239685,637.642700 572.946655,637.317261 
	C573.000122,636.999817 572.997803,637.002136 572.997803,637.002136 
z"/>
<path fill="#ECEAE6" opacity="1.000000" stroke="none" 
	d="
M572.125305,635.877625 
	C572.432312,636.063171 572.739380,636.248718 573.022095,636.718201 
	C572.997803,637.002136 573.000122,636.999817 573.003540,636.995178 
	C572.649414,636.966675 572.291992,636.942749 571.902222,636.527954 
	C571.869934,636.137146 572.125305,635.877625 572.125305,635.877625 
z"/>
<path fill="#ECEAE6" opacity="1.000000" stroke="none" 
	d="
M571.743958,636.268555 
	C571.323425,636.238403 571.028931,636.076782 570.771484,635.544983 
	C570.931274,635.058899 571.053955,634.943054 571.176636,634.827209 
	C571.465820,635.002502 571.755005,635.177795 572.084778,635.615356 
	C572.125305,635.877625 571.869934,636.137146 571.743958,636.268555 
z"/>
<path fill="#ECEAE6" opacity="1.000000" stroke="none" 
	d="
M570.180420,633.819763 
	C570.470642,633.987671 570.760925,634.155579 571.113892,634.575317 
	C571.053955,634.943054 570.931274,635.058899 570.617798,635.341431 
	C570.098389,635.308533 569.769775,635.109009 569.559937,634.527588 
	C569.845947,634.037048 570.013184,633.928406 570.180420,633.819763 
z"/>
<path fill="#ECEAE6" opacity="1.000000" stroke="none" 
	d="
M569.411377,634.279785 
	C568.960938,634.392456 568.818909,634.304565 568.673706,634.029663 
	C568.710999,633.719727 568.792542,633.530457 569.032104,633.075378 
	C569.476501,632.979797 569.763062,633.149963 570.114990,633.569946 
	C570.013184,633.928406 569.845947,634.037048 569.411377,634.279785 
z"/>
<path fill="#E3E1DD" opacity="1.000000" stroke="none" 
	d="
M496.896667,448.750366 
	C496.735657,448.737579 496.634491,448.471375 496.665924,448.103027 
	C496.851227,448.166290 496.903900,448.331665 496.896667,448.750366 
z"/>
<path fill="#07161C" opacity="1.000000" stroke="none" 
	d="
M641.000977,422.005798 
	C638.347351,421.852936 635.687561,421.769318 633.041382,421.532959 
	C627.268127,421.017273 623.867004,417.541229 623.962830,412.362244 
	C624.063049,406.945648 627.244324,403.853668 633.391846,403.827576 
	C657.548950,403.725098 681.706604,403.762085 705.864075,403.739868 
	C708.862671,403.737091 711.862610,403.621277 714.859680,403.677216 
	C721.092957,403.793518 724.585449,406.631287 724.946106,411.761810 
	C725.306946,416.896698 721.816162,420.614746 715.749451,421.533905 
	C715.092896,421.633392 714.421387,421.634766 712.927734,421.703979 
	C688.399475,421.819489 664.700195,421.912659 641.000977,422.005798 
z"/>
<path fill="#07151C" opacity="1.000000" stroke="none" 
	d="
M277.006683,422.091492 
	C275.034149,420.726166 272.150452,419.772064 271.304626,417.898132 
	C270.065521,415.152832 269.423096,411.545746 270.098419,408.675842 
	C270.981506,404.923157 274.693207,403.726746 278.443665,403.719452 
	C289.919617,403.697083 301.395660,403.726776 312.871674,403.731567 
	C327.840363,403.737823 342.809113,403.713287 357.777710,403.755920 
	C364.057526,403.773804 367.150146,405.668884 368.133850,410.175140 
	C369.254913,415.310425 366.988953,418.798767 361.676575,421.146362 
	C341.718384,421.467712 322.502747,421.641754 303.287201,421.822723 
	C294.526978,421.905243 285.766846,422.001495 277.006683,422.091492 
z"/>
<path fill="#05131B" opacity="1.000000" stroke="none" 
	d="
M504.982178,189.382782 
	C504.980042,210.505798 505.008972,231.170395 504.934113,251.834641 
	C504.925873,254.109802 504.756226,256.562927 503.901642,258.617523 
	C502.350677,262.346466 499.152466,264.276276 495.099731,263.771362 
	C491.020782,263.263153 488.511353,260.577911 487.935059,256.540833 
	C487.514801,253.596878 487.549561,250.573761 487.551636,247.586044 
	C487.564423,229.088608 487.625214,210.591217 487.671295,192.093811 
	C487.673767,191.094131 487.651459,190.092636 487.702515,189.095139 
	C488.006042,183.166504 490.940643,179.621887 495.678162,179.432999 
	C500.919922,179.224014 504.340393,182.713089 504.982178,189.382782 
z"/>
<path fill="#09151B" opacity="1.000000" stroke="none" 
	d="
M363.679077,268.320251 
	C373.034576,277.792694 382.227478,286.930695 391.221710,296.260223 
	C395.821594,301.031647 396.113129,304.634155 392.873718,308.558472 
	C389.476318,312.674194 383.953766,313.320129 380.187775,309.537598 
	C365.418274,294.703186 350.743896,279.772644 336.166382,264.749573 
	C332.183868,260.645355 332.142303,255.626617 335.468933,252.257614 
	C338.826996,248.856766 344.337555,248.936096 348.382141,252.823395 
	C353.528564,257.769653 358.428192,262.972717 363.679077,268.320251 
z"/>
<path fill="#08151B" opacity="1.000000" stroke="none" 
	d="
M616.438721,306.470795 
	C609.863098,312.725220 605.241821,313.478607 601.257141,309.154938 
	C597.384888,304.953308 598.643311,300.174255 604.579224,294.278534 
	C617.686584,281.259918 630.603455,268.049805 643.674561,254.994446 
	C645.524109,253.147171 647.578125,251.119125 649.933899,250.252991 
	C653.647095,248.887787 657.264893,249.929657 659.539551,253.488922 
	C662.193970,257.642517 661.117065,261.469727 657.861755,264.763580 
	C649.203186,273.524597 640.467102,282.208862 631.780212,290.941956 
	C626.732544,296.016510 621.720215,301.126343 616.438721,306.470795 
z"/>
<path fill="#0A171E" opacity="1.000000" stroke="none" 
	d="
M340.224976,340.939026 
	C343.727936,345.543396 343.948700,349.414856 340.844574,352.272766 
	C337.363861,355.477478 333.743103,354.976105 329.980804,352.413727 
	C319.545929,345.307037 309.017120,338.338379 298.539093,331.294861 
	C297.440002,330.556030 296.311951,329.796997 295.403351,328.849731 
	C292.500763,325.823853 292.016876,322.291351 294.342102,318.850433 
	C296.715332,315.338440 300.380646,314.492615 303.994751,316.511963 
	C308.327454,318.932800 312.325592,321.956116 316.447266,324.750031 
	C324.281067,330.060181 332.099701,335.392700 340.224976,340.939026 
z"/>
<path fill="#09171C" opacity="1.000000" stroke="none" 
	d="
M653.126587,352.878265 
	C649.070801,347.359955 649.346619,343.832489 654.319763,340.327667 
	C665.319092,332.575928 676.416931,324.962311 687.543884,317.394379 
	C691.581116,314.648499 696.024414,315.373718 698.631836,318.880646 
	C701.229431,322.374420 700.667725,326.930145 696.539124,329.790710 
	C684.943848,337.824585 673.250977,345.733490 661.311096,353.237427 
	C659.440002,354.413391 656.078491,353.217957 653.126587,352.878265 
z"/>
<path fill="#0A181E" opacity="1.000000" stroke="none" 
	d="
M592.434937,230.127899 
	C587.831482,238.411819 583.554443,246.432632 578.919006,254.240662 
	C576.143127,258.916443 571.729675,260.111908 567.983093,257.827271 
	C564.208740,255.525681 563.264465,251.182281 565.794250,246.543396 
	C569.835266,239.133301 574.050049,231.818146 578.154480,224.442307 
	C580.384399,220.434982 583.734070,218.574127 588.095947,220.123459 
	C592.545227,221.703796 593.820374,225.284256 592.434937,230.127899 
z"/>
<path fill="#0A181E" opacity="1.000000" stroke="none" 
	d="
M425.276611,242.733185 
	C426.389618,244.819229 427.340973,246.571167 428.208313,248.363754 
	C430.027985,252.124634 429.093414,255.243362 425.616547,257.379028 
	C422.096100,259.541504 418.100647,259.714020 415.838501,256.049500 
	C410.522827,247.438507 405.563812,238.582916 400.945801,229.577423 
	C399.044983,225.870605 400.705048,222.168045 404.501343,220.387970 
	C408.345947,218.585236 412.169006,219.222580 414.477661,223.201523 
	C418.147919,229.527267 421.557251,236.004395 425.276611,242.733185 
z"/>
<path fill="#FEFCF7" opacity="1.000000" stroke="none" 
	d="
M277.328491,422.351807 
	C285.766846,422.001495 294.526978,421.905243 303.287201,421.822723 
	C322.502747,421.641754 341.718384,421.467712 361.395996,421.301147 
	C360.621277,421.871948 359.386047,422.917603 358.147552,422.921539 
	C331.794769,423.005096 305.441620,422.973419 279.088562,422.946411 
	C278.609070,422.945892 278.129730,422.728424 277.328491,422.351807 
z"/>
<path fill="#FEFCF7" opacity="1.000000" stroke="none" 
	d="
M641.307983,422.287292 
	C664.700195,421.912659 688.399475,421.819489 712.556885,421.838684 
	C711.789612,422.300293 710.564880,422.950714 709.338440,422.953979 
	C687.405884,423.012421 665.473022,422.996063 643.540283,422.971771 
	C642.898376,422.971039 642.256775,422.708984 641.307983,422.287292 
z"/>
<path fill="#09171C" opacity="1.000000" stroke="none" 
	d="
M314.169464,817.810425 
	C316.121826,820.986084 317.823822,823.889282 320.002655,827.605835 
	C307.505554,827.605835 296.331909,827.605835 284.649963,827.605835 
	C285.376160,821.724609 288.354095,817.456238 293.569916,814.948364 
	C300.813477,811.465637 307.689331,812.326233 314.169464,817.810425 
z"/>
<path fill="#0A171E" opacity="1.000000" stroke="none" 
	d="
M573.468811,856.771606 
	C570.907166,856.818542 568.658142,857.187622 566.637146,856.668640 
	C562.942566,855.719849 559.890198,853.681274 559.582764,849.367432 
	C559.276306,845.067505 561.144104,841.628052 565.286621,840.564819 
	C572.081665,838.820740 579.047363,837.741577 585.997803,836.370850 
	C587.660828,850.805542 586.019775,853.404175 573.468811,856.771606 
z"/>
<path fill="#05131B" opacity="1.000000" stroke="none" 
	d="
M431.315796,828.838989 
	C435.026764,817.853943 443.059296,812.018982 452.027466,813.516479 
	C462.347443,815.239807 469.133118,823.905029 469.108154,835.328247 
	C469.085968,845.472717 461.814972,854.466980 452.370544,856.032654 
	C441.041901,857.910706 430.545654,848.131958 430.609924,835.684875 
	C430.621033,833.533508 430.964539,831.383911 431.315796,828.838989 
z"/>
</svg>